<?xml version="1.0" encoding="UTF-8"?>
<svg version="1.1" xmlns="http://www.w3.org/2000/svg" width="512" height="512">
<path d="M0 0 C4.92364342 4.17889063 8.50444083 9.80859138 9.27182579 16.29908562 C9.3677031 18.98438431 9.37116807 21.6546926 9.34057617 24.34155273 C9.34101425 25.35694626 9.34145233 26.37233978 9.34190369 27.41850281 C9.33982248 30.75706565 9.31652251 34.0951192 9.29296875 37.43359375 C9.28737043 39.75529201 9.28310145 42.07699382 9.28010559 44.3986969 C9.26867547 50.49626526 9.2392238 56.59361774 9.20599365 62.69110107 C9.1752534 68.91838664 9.16159179 75.14570723 9.14648438 81.37304688 C9.11435255 93.58212586 9.06317817 105.79104495 9 118 C10.45995203 117.9737289 10.45995203 117.9737289 11.94939804 117.94692707 C35.66149741 117.5246298 59.37310787 117.21268123 83.08817673 117.01556873 C94.55705366 116.91770353 106.02344296 116.78436231 117.49072266 116.56665039 C127.48904673 116.37691825 137.48556937 116.25461584 147.48564363 116.2123186 C152.77897134 116.18759896 158.06714729 116.12979326 163.35881805 115.99112892 C195.56906703 115.17897447 195.56906703 115.17897447 202.91239738 119.85422516 C207.2107319 124.19112776 209.4635263 128.95677522 211.23844337 134.74020386 C212.34527847 138.02455802 214.06408359 140.47172657 216.06640625 143.2890625 C216.6480957 144.17835449 217.22978516 145.06764648 217.82910156 145.98388672 C218.40112305 146.8554541 218.97314453 147.72702148 219.5625 148.625 C220.84008221 150.57796902 222.1174242 152.53109522 223.39453125 154.484375 C224.00635254 155.41958984 224.61817383 156.35480469 225.24853516 157.31835938 C227.7599391 161.16353095 230.257081 165.01782622 232.75 168.875 C233.18836182 169.55320801 233.62672363 170.23141602 234.07836914 170.93017578 C234.94884601 172.2772691 235.8192085 173.62443632 236.68945312 174.97167969 C238.95776799 178.48232796 241.22907298 181.99104113 243.5 185.5 C244.41668015 186.91665794 245.33334684 188.33332459 246.25 189.75 C246.70375 190.45125 247.1575 191.1525 247.625 191.875 C252.66666667 199.66666667 257.70833333 207.45833333 262.75 215.25 C263.20334717 215.95060547 263.65669434 216.65121094 264.1237793 217.37304688 C265.04459589 218.79617161 265.96533098 220.21934907 266.88598633 221.64257812 C269.11350909 225.08586371 271.34222399 228.52836128 273.57421875 231.96875 C279.68446361 241.39197239 285.74102299 250.84865863 291.78662109 260.31347656 C297.21113632 268.79403854 302.69585968 277.23411321 308.21582031 285.65283203 C308.80073242 286.54599121 309.38564453 287.43915039 309.98828125 288.359375 C310.75458862 289.52678223 310.75458862 289.52678223 311.53637695 290.71777344 C316 297.67789825 316 297.67789825 316 300 C296.53 300 277.06 300 257 300 C257.04640625 304.34800781 257.0928125 308.69601562 257.140625 313.17578125 C257.16639842 316.67048436 257.18807195 320.16516016 257.20700073 323.65990448 C257.22801232 327.33377048 257.25602903 331.00725965 257.30175781 334.6809082 C257.3456244 338.22766472 257.36922168 341.77405877 257.37950897 345.3210659 C257.39035921 347.31445154 257.42151824 349.30769393 257.45318604 351.30085754 C257.45636228 364.34184703 253.76571985 374.26535775 245 384 C234.78198407 393.13351672 223.70045258 395.60462763 210.29907227 395.50793457 C208.94447697 395.51255274 207.58988669 395.51891177 206.23530674 395.52684355 C202.54154144 395.54343463 198.84819321 395.53533766 195.15442705 395.52289867 C191.15979823 395.51380824 187.16523863 395.52783761 183.17062378 395.53881836 C175.3564534 395.55656575 167.54243707 395.55278051 159.72826076 395.5411678 C153.37515297 395.53211883 147.02208822 395.5309158 140.66897583 395.53526306 C139.76332368 395.53587599 138.85767154 395.53648893 137.92457539 395.53712043 C136.08451929 395.53839939 134.24446321 395.53969624 132.40440714 395.5410108 C115.16717143 395.55240552 97.93002094 395.53932029 80.69279921 395.51780933 C65.91592504 395.49993936 51.13917659 395.50304378 36.36230469 395.52148438 C19.1849851 395.54291067 2.00774013 395.55130699 -15.16959095 395.53903532 C-17.00271923 395.53776118 -18.83584753 395.5365037 -20.66897583 395.53526306 C-21.5708113 395.53464596 -22.47264677 395.53402886 -23.40181059 395.53339306 C-29.74420019 395.52994543 -36.08654231 395.53575581 -42.42892456 395.54518127 C-50.16261716 395.5564222 -57.89614744 395.55331731 -65.62982154 395.5320583 C-69.57252032 395.52157596 -73.51494889 395.51737763 -77.45764542 395.53065491 C-81.07246328 395.54264355 -84.68676248 395.53591109 -88.30153382 395.5147447 C-90.21655896 395.50821588 -92.13162059 395.52115669 -94.04660702 395.53497362 C-106.70282461 395.42093708 -116.57225967 391.48936493 -126 383 C-135.44028235 372.43879358 -137.61025134 361.18650963 -137.390625 347.36328125 C-137.38314438 345.98895602 -137.37746008 344.61461996 -137.37347412 343.24028015 C-137.35836045 339.66115732 -137.31920709 336.08270649 -137.2746582 332.50384521 C-137.23339285 328.83664192 -137.21517629 325.16932448 -137.1953125 321.50195312 C-137.15482729 314.33404619 -137.07650372 307.16797313 -137 300 C-156.47 300 -175.94 300 -196 300 C-194.31904897 294.95714691 -192.52095546 291.43375372 -189.5625 287.1875 C-188.65512233 285.85623666 -187.74891533 284.52417481 -186.84375 283.19140625 C-186.37453125 282.50320801 -185.9053125 281.81500977 -185.421875 281.10595703 C-183.08504069 277.64484221 -180.82358075 274.13589182 -178.5625 270.625 C-178.10560791 269.91690186 -177.64871582 269.20880371 -177.17797852 268.47924805 C-176.2486805 267.0387954 -175.31972592 265.59812114 -174.39111328 264.15722656 C-172.09846738 260.60197574 -169.79891627 257.05119806 -167.5 253.5 C-166.58329958 252.08335517 -165.66663293 250.6666885 -164.75 249.25 C-104.25 155.75 -104.25 155.75 -102.87353516 153.62280273 C-101.96167023 152.21351274 -101.04988569 150.80417073 -100.13818359 149.39477539 C-97.77372436 145.73980362 -95.40765629 142.08588772 -93.0390625 138.43359375 C-92.55115234 137.68078125 -92.06324219 136.92796875 -91.56054688 136.15234375 C-90.6378961 134.72882541 -89.71475961 133.30562169 -88.79101562 131.8828125 C-88.36755859 131.22925781 -87.94410156 130.57570312 -87.5078125 129.90234375 C-86.91091362 129.00502785 -86.91091362 129.00502785 -86.30195618 128.08958435 C-84.97071939 126.04130658 -84.97071939 126.04130658 -84.00151062 123.89637756 C-81.24336619 118.42087582 -81.24336619 118.42087582 -77.93249512 117.30015564 C-75.36084409 117.07268573 -72.90319665 117.09948956 -70.32421875 117.21875 C-69.3990596 117.23006958 -68.47390045 117.24138916 -67.52070618 117.25305176 C-64.57417087 117.29773466 -61.63255613 117.39807332 -58.6875 117.5 C-56.6869194 117.54013785 -54.68626227 117.5766381 -52.68554688 117.609375 C-47.78847715 117.69744294 -42.89507178 117.83542786 -38 118 C-38.00888245 116.70231689 -38.01776489 115.40463379 -38.0269165 114.06762695 C-38.10807315 101.82633493 -38.1679996 89.58509763 -38.20724869 77.34359741 C-38.22810553 71.05040252 -38.2563891 64.75742517 -38.30175781 58.46435547 C-38.34528241 52.38892484 -38.36915142 46.3137032 -38.37950897 40.23812866 C-38.38688838 37.9225231 -38.40129865 35.60692872 -38.42292023 33.29141235 C-38.45204125 30.04298359 -38.45595225 26.79541371 -38.45410156 23.546875 C-38.47567322 22.11727699 -38.47567322 22.11727699 -38.49768066 20.65879822 C-38.45464282 13.6577005 -36.84744705 8.45083464 -32.359375 3.01171875 C-22.41285388 -5.17243334 -11.37949898 -6.5799824 0 0 Z " fill="#FF5834" transform="translate(196,61)"/>
<path d="M0 0 C22.11 0 44.22 0 67 0 C67.495 11.385 67.495 11.385 68 23 C69.49027035 27.98176089 70.64298578 31.58376637 73 36 C73.47953125 36.90878906 73.9590625 37.81757813 74.453125 38.75390625 C75.86950596 41.25493683 77.37516164 43.63009328 79 46 C79.41507812 46.61230469 79.83015625 47.22460938 80.2578125 47.85546875 C86.55633884 56.096355 97.28512155 62.66375171 107 66 C108.02609375 66.35707031 109.0521875 66.71414063 110.109375 67.08203125 C114.94367039 68.22265315 119.4284242 68.29239922 124.375 68.25 C125.26960938 68.25773437 126.16421875 68.26546875 127.0859375 68.2734375 C143.39078395 68.22603969 157.21935285 61.91967469 169.21875 50.9765625 C182.95855156 36.76115242 185.23466303 18.82728945 186 0 C193.26 0 200.52 0 208 0 C208.0825 2.475 208.165 4.95 208.25 7.5 C209.21715391 26.34213268 214.89234322 41.89274146 229 55 C244.00314601 66.64226557 259.52713522 69.46354753 278 68 C288.06351584 66.40845629 296.87560494 62.08988268 305 56 C305.65355469 55.52820313 306.30710937 55.05640625 306.98046875 54.5703125 C317.2818113 46.52025673 322.50722534 34.22471132 326 22 C326.33 14.74 326.66 7.48 327 0 C349.11 0 371.22 0 394 0 C394.0825 10.168125 394.165 20.33625 394.25 30.8125 C394.28641602 34.00139893 394.32283203 37.19029785 394.36035156 40.47583008 C394.37204512 43.03205697 394.38223536 45.58829138 394.390625 48.14453125 C394.41108887 49.44853882 394.43155273 50.75254639 394.45263672 52.09606934 C394.45760751 65.23512511 390.83843076 75.18460971 382 85 C371.78198407 94.13351672 360.70045258 96.60462763 347.29907227 96.50793457 C345.94447697 96.51255274 344.58988669 96.51891177 343.23530674 96.52684355 C339.54154144 96.54343463 335.84819321 96.53533766 332.15442705 96.52289867 C328.15979823 96.51380824 324.16523863 96.52783761 320.17062378 96.53881836 C312.3564534 96.55656575 304.54243707 96.55278051 296.72826076 96.5411678 C290.37515297 96.53211883 284.02208822 96.5309158 277.66897583 96.53526306 C276.76332368 96.53587599 275.85767154 96.53648893 274.92457539 96.53712043 C273.08451929 96.53839939 271.24446321 96.53969624 269.40440714 96.5410108 C252.16717143 96.55240552 234.93002094 96.53932029 217.69279921 96.51780933 C202.91592504 96.49993936 188.13917659 96.50304378 173.36230469 96.52148438 C156.1849851 96.54291067 139.00774013 96.55130699 121.83040905 96.53903532 C119.99728077 96.53776118 118.16415247 96.5365037 116.33102417 96.53526306 C115.4291887 96.53464596 114.52735323 96.53402886 113.59818941 96.53339306 C107.25579981 96.52994543 100.91345769 96.53575581 94.57107544 96.54518127 C86.83738284 96.5564222 79.10385256 96.55331731 71.37017846 96.5320583 C67.42747968 96.52157596 63.48505111 96.51737763 59.54235458 96.53065491 C55.92753672 96.54264355 52.31323752 96.53591109 48.69846618 96.5147447 C46.78344104 96.50821588 44.86837941 96.52115669 42.95339298 96.53497362 C30.29717539 96.42093708 20.42774033 92.48936493 11 84 C1.49301757 73.36417365 -0.60899063 62.05932237 -0.390625 48.14453125 C-0.38659668 46.91714233 -0.38256836 45.68975342 -0.37841797 44.4251709 C-0.35766004 39.88745951 -0.30181611 35.34996302 -0.25 30.8125 C-0.1675 20.644375 -0.085 10.47625 0 0 Z " fill="#FEFEFE" transform="translate(59,360)"/>
<path d="M0 0 C39.27 0 78.54 0 119 0 C119 21.8931242 116.45439517 37.45322886 100.921875 53.26953125 C86.95797342 66.31868527 70.79616407 69.63655918 52.31640625 69.33984375 C37.75532314 68.7175311 23.92549133 60.41120686 14 50 C0.74202316 34.06221934 0 21.02528857 0 0 Z " fill="#024AAC" transform="translate(126,360)"/>
<path d="M0 0 C39.27 0 78.54 0 119 0 C119 25.75081967 119 25.75081967 115 34 C114.63777344 34.77988281 114.27554688 35.55976563 113.90234375 36.36328125 C106.29901296 51.28642879 93.90919627 61.81493472 78 67 C64.77772603 70.96388086 48.5319109 71.04792674 36 65 C35.09636719 64.59910156 34.19273437 64.19820313 33.26171875 63.78515625 C18.78038756 56.71859436 8.26647898 44.51495299 2.77734375 29.4375 C-0.4343669 19.36660833 0 11.10558095 0 0 Z " fill="#024AAC" transform="translate(267,360)"/>
</svg>
