<?xml version="1.0" encoding="UTF-8"?>
<svg version="1.1" xmlns="http://www.w3.org/2000/svg" width="512" height="512">
<path d="M0 0 C4.92364342 4.17889063 8.50444083 9.80859138 9.27182579 16.29908562 C9.3677031 18.98438431 9.37116807 21.6546926 9.34057617 24.34155273 C9.34101425 25.35694626 9.34145233 26.37233978 9.34190369 27.41850281 C9.33982248 30.75706565 9.31652251 34.0951192 9.29296875 37.43359375 C9.28737043 39.75529201 9.28310145 42.07699382 9.28010559 44.3986969 C9.26867547 50.49626526 9.2392238 56.59361774 9.20599365 62.69110107 C9.1752534 68.91838664 9.16159179 75.14570723 9.14648438 81.37304688 C9.11435255 93.58212586 9.06317817 105.79104495 9 118 C9.97330135 117.9870949 10.94660271 117.9741898 11.94939804 117.96089363 C35.66187534 117.64972226 59.37408707 117.41986438 83.08817673 117.27462959 C94.5564314 117.2025223 106.02333524 117.10426847 117.49072266 116.94384766 C127.48903903 116.80404514 137.48637698 116.71392495 147.48564363 116.68276107 C152.7779344 116.66455017 158.06742692 116.62194753 163.35881805 116.51977921 C168.34692366 116.42425338 173.33109866 116.39552957 178.32003212 116.41649246 C180.14384961 116.41266208 181.96780767 116.38508861 183.79083061 116.33112335 C198.23989197 115.92462778 198.23989197 115.92462778 203.70633698 121.07748032 C206.37810939 123.99209162 208.68788234 127.09615032 210.88866663 130.37676024 C212.3052163 132.44580613 213.91145691 134.29985045 215.59375 136.15625 C216.07972656 136.71570313 216.56570313 137.27515625 217.06640625 137.8515625 C217.53949219 138.39554688 218.01257813 138.93953125 218.5 139.5 C223.18144538 144.89212263 227.83835956 150.30446777 232.48046875 155.73046875 C236.1371438 160.00138843 239.81435479 164.25406669 243.5 168.5 C248.1809556 173.89254979 252.83835664 179.30446436 257.48046875 184.73046875 C261.1371438 189.00138843 264.81435479 193.25406669 268.5 197.5 C272.68330355 202.31924518 276.85134439 207.15089536 281 212 C285.12997233 216.82634836 289.27590324 221.63838999 293.4375 226.4375 C293.97036621 227.05214111 294.50323242 227.66678223 295.05224609 228.30004883 C297.89991359 231.58321676 300.75117463 234.86321652 303.60546875 238.140625 C304.19465088 238.81810791 304.78383301 239.49559082 305.39086914 240.19360352 C306.51781477 241.48936093 307.64584729 242.78417415 308.77514648 244.07788086 C316 252.3894875 316 252.3894875 316 255 C296.53 255 277.06 255 257 255 C257.04640625 262.53585937 257.0928125 270.07171875 257.140625 277.8359375 C257.16107249 282.6211076 257.18032898 287.40622353 257.1953125 292.19140625 C257.21918779 299.78022503 257.24737806 307.36885004 257.30175781 314.95751953 C257.34534271 321.07834619 257.36916407 327.19896493 257.37950897 333.31993484 C257.3868776 335.65063371 257.40126669 337.98132169 257.42292023 340.31193161 C257.45212152 343.58629351 257.45594892 346.85980537 257.45410156 350.13427734 C257.46848267 351.08950287 257.48286377 352.04472839 257.49768066 353.02890015 C257.42915706 364.31496308 252.54853932 373.88888513 245.03515625 382.1640625 C236.89783374 390.0218025 226.67648985 394.1133974 215.39228058 394.13422108 C213.70689328 394.14090784 213.70689328 394.14090784 211.98745775 394.14772969 C210.75800416 394.14754533 209.52855058 394.14736097 208.26184082 394.14717102 C206.95183719 394.15084771 205.64183356 394.1545244 204.29213285 394.1583125 C200.65721927 394.16831282 197.0223222 394.17204612 193.38739681 394.17470181 C189.46626525 394.17861075 185.54514668 394.18818872 181.62402344 394.19691467 C172.15470077 394.21666311 162.68537705 394.22674354 153.21603894 394.23564246 C148.75376138 394.24002828 144.291485 394.24539436 139.82920837 394.25063133 C124.99018856 394.26764249 110.15116948 394.28213565 95.31214142 394.28938007 C91.46265156 394.29128988 87.61316171 394.29321023 83.76367188 394.29516602 C82.32856126 394.29589163 82.32856126 394.29589163 80.8644585 394.2966319 C65.37325779 394.30492843 49.88213439 394.3302595 34.39096743 394.36274669 C18.47678018 394.39584816 2.56263217 394.41383165 -13.35158968 394.41702431 C-22.28285804 394.41918662 -31.21401367 394.42789425 -40.14524841 394.45348549 C-47.75311008 394.47523476 -55.36083163 394.4832222 -62.96872085 394.47351871 C-66.84683597 394.46898612 -70.72466227 394.470799 -74.60273743 394.49028015 C-78.16112856 394.50800012 -81.71902208 394.50684363 -85.27741915 394.49138286 C-87.1574723 394.48791064 -89.0375312 394.50396701 -90.91751051 394.52098733 C-103.98220857 394.42303073 -115.55839674 391.0364343 -125.15234375 381.96484375 C-131.86549063 374.87666073 -137.13208843 366.48263252 -137.12025452 356.49481201 C-137.12162918 355.59741302 -137.12300385 354.70001404 -137.12442017 353.77542114 C-137.11902725 352.31022537 -137.11902725 352.31022537 -137.11352539 350.81542969 C-137.11367142 349.7809671 -137.11381744 348.74650452 -137.1139679 347.68069458 C-137.11327117 344.26106673 -137.10548994 340.84149334 -137.09765625 337.421875 C-137.09579122 335.05104604 -137.09436772 332.68021669 -137.09336853 330.30938721 C-137.08955006 324.06883684 -137.07972545 317.82830973 -137.06866455 311.58776855 C-137.05663775 304.10042807 -137.052045 296.6130798 -137.04621124 289.12573242 C-137.03651338 277.7504721 -137.0173521 266.37526283 -137 255 C-156.47 255 -175.94 255 -196 255 C-194.14779669 250.36949172 -192.2850705 247.82748499 -188.9375 244.375 C-185.28237631 240.50427013 -181.7749192 236.59139497 -178.4375 232.4375 C-175.40642433 228.67161811 -172.27418423 225.05670244 -169 221.5 C-165.70668301 217.92207537 -162.55348679 214.28460334 -159.5 210.5 C-155.66280969 205.74404581 -151.60614899 201.24495199 -147.46875 196.75 C-145.05621896 194.06262366 -142.7674379 191.31034556 -140.5 188.5 C-136.66280969 183.74404581 -132.60614899 179.24495199 -128.46875 174.75 C-126.05621896 172.06262366 -123.7674379 169.31034556 -121.5 166.5 C-117.66280969 161.74404581 -113.60614899 157.24495199 -109.46875 152.75 C-106.27239601 149.18950441 -103.28826851 145.47734173 -100.28515625 141.75390625 C-96.81522647 137.572196 -93.14875242 133.5625208 -89.35972595 129.66722107 C-87.87221875 127.96308437 -87.87221875 127.96308437 -86.74684143 125.54188538 C-84.79269289 122.19116978 -83.17879423 120.26726666 -80 118 C-73.04863465 116.2779629 -65.5858462 117.06442288 -58.5 117.375 C-56.5131325 117.42520614 -54.52614349 117.47082558 -52.5390625 117.51171875 C-47.68969178 117.62147158 -42.84618614 117.7937388 -38 118 C-38.00888245 116.70231689 -38.01776489 115.40463379 -38.0269165 114.06762695 C-38.10807315 101.82633493 -38.1679996 89.58509763 -38.20724869 77.34359741 C-38.22810553 71.05040252 -38.2563891 64.75742517 -38.30175781 58.46435547 C-38.34528241 52.38892484 -38.36915142 46.3137032 -38.37950897 40.23812866 C-38.38688838 37.9225231 -38.40129865 35.60692872 -38.42292023 33.29141235 C-38.45204125 30.04298359 -38.45595225 26.79541371 -38.45410156 23.546875 C-38.47567322 22.11727699 -38.47567322 22.11727699 -38.49768066 20.65879822 C-38.45464282 13.6577005 -36.84744705 8.45083464 -32.359375 3.01171875 C-22.41285388 -5.17243334 -11.37949898 -6.5799824 0 0 Z " fill="#FF5834" transform="translate(196,61)"/>
<path d="M0 0 C24.42 0 48.84 0 74 0 C71.36 5.28 68.72 10.56 66 16 C61.13523945 33.02666193 62.82323174 50.62413775 71.125 66.1875 C79.08410546 78.98614628 91.76824519 89.03806514 106.30859375 93.375 C119.41974491 95.59487744 133.74818535 95.53140999 146 90 C146.94746094 89.57589844 147.89492187 89.15179688 148.87109375 88.71484375 C164.05394635 81.15500452 173.71732821 68.53533559 179.609375 52.9375 C181.43257522 47.30601825 181.57509469 41.82011797 181.5625 35.9375 C181.5615332 34.84002441 181.56056641 33.74254883 181.55957031 32.61181641 C181.28681777 19.88398704 177.3025776 11.02951081 171 0 C188.16 0 205.32 0 223 0 C219.535 6.93 219.535 6.93 216 14 C210.72786366 26.80685275 210.52827682 43.87896712 215.5 56.875 C218.33020825 63.60017932 222.26453014 69.47528516 227 75 C227.83144531 75.98033203 227.83144531 75.98033203 228.6796875 76.98046875 C237.33280816 86.358133 250.3072806 93.3012246 263.15185547 94.140625 C274.37354314 94.58373211 284.50572293 94.46376292 295 90 C295.85335938 89.67257812 296.70671875 89.34515625 297.5859375 89.0078125 C310.39319104 83.47281649 321.06867103 71.50680576 326.3125 58.75 C326.89668899 57.17454009 327.4586524 55.59068962 328 54 C328.53367187 52.73929687 328.53367187 52.73929687 329.078125 51.453125 C334.02994502 32.90478221 328.95246581 16.11443845 320 0 C344.42 0 368.84 0 394 0 C394.16043524 26.30246586 394.16043524 26.30246586 394.1953125 37.546875 C394.21918863 45.20812107 394.24738122 52.86917522 394.30175781 60.53027344 C394.34533977 66.70945459 394.36916346 72.8884298 394.37950897 79.06775284 C394.38687812 81.42078008 394.40126824 83.77379653 394.42292023 86.12673569 C394.45211756 89.43222833 394.45594908 92.73687884 394.45410156 96.04248047 C394.46848267 97.00705673 394.48286377 97.971633 394.49768066 98.96543884 C394.42958865 110.28461375 389.57344137 119.86145821 382.03515625 128.1640625 C373.89783374 136.0218025 363.67648985 140.1133974 352.39228058 140.13422108 C350.70689328 140.14090784 350.70689328 140.14090784 348.98745775 140.14772969 C347.75800416 140.14754533 346.52855058 140.14736097 345.26184082 140.14717102 C343.95183719 140.15084771 342.64183356 140.1545244 341.29213285 140.1583125 C337.65721927 140.16831282 334.0223222 140.17204612 330.38739681 140.17470181 C326.46626525 140.17861075 322.54514668 140.18818872 318.62402344 140.19691467 C309.15470077 140.21666311 299.68537705 140.22674354 290.21603894 140.23564246 C285.75376138 140.24002828 281.291485 140.24539436 276.82920837 140.25063133 C261.99018856 140.26764249 247.15116948 140.28213565 232.31214142 140.28938007 C228.46265156 140.29128988 224.61316171 140.29321023 220.76367188 140.29516602 C219.80693146 140.29564976 218.85019105 140.2961335 217.8644585 140.2966319 C202.37325779 140.30492843 186.88213439 140.3302595 171.39096743 140.36274669 C155.47678018 140.39584816 139.56263217 140.41383165 123.64841032 140.41702431 C114.71714196 140.41918662 105.78598633 140.42789425 96.85475159 140.45348549 C89.24688992 140.47523476 81.63916837 140.4832222 74.03127915 140.47351871 C70.15316403 140.46898612 66.27533773 140.470799 62.39726257 140.49028015 C58.83887144 140.50800012 55.28097792 140.50684363 51.72258085 140.49138286 C49.8425277 140.48791064 47.9624688 140.50396701 46.08248949 140.52098733 C33.01779143 140.42303073 21.44160326 137.0364343 11.84765625 127.96484375 C5.11802331 120.85925366 -0.13200087 112.46474059 -0.12025452 102.45684814 C-0.12162918 101.551035 -0.12300385 100.64522186 -0.12442017 99.71195984 C-0.12082489 98.72581192 -0.11722961 97.739664 -0.11352539 96.72363281 C-0.11367142 95.67941666 -0.11381744 94.6352005 -0.1139679 93.55934143 C-0.11327113 90.10724817 -0.10548973 86.65520884 -0.09765625 83.203125 C-0.09579123 80.80987579 -0.09436772 78.41662619 -0.09336853 76.02337646 C-0.08954996 69.72364244 -0.07972527 63.42393146 -0.06866455 57.12420654 C-0.05663802 49.56594824 -0.05204505 42.00768224 -0.04621124 34.44941711 C-0.0365132 22.96626205 -0.01735198 11.48315755 0 0 Z " fill="#FEFEFE" transform="translate(59,315)"/>
<path d="M0 0 C1.71126153 -0.04709159 3.42432442 -0.04507255 5.13572693 -0.00341797 C6.07466797 -0.01597626 7.01360901 -0.02853455 7.98100281 -0.04147339 C11.07513976 -0.07081817 14.16456199 -0.03499491 17.25852966 0.00439453 C19.41274339 0.00341066 21.56695763 -0.00053869 23.72116089 -0.00732422 C28.23156389 -0.01156409 32.74035618 0.01566351 37.25047302 0.06591797 C43.03057192 0.12842864 48.80788669 0.1196195 54.58815098 0.08816528 C59.03474376 0.07063914 63.48069076 0.08736253 67.92721367 0.11480713 C70.05824046 0.12450241 72.18933557 0.12435947 74.32036018 0.11419678 C77.29933976 0.10582971 80.27440258 0.14270076 83.25291443 0.19189453 C84.13253342 0.180867 85.0121524 0.16983948 85.91842651 0.15847778 C91.75593527 0.32068495 91.75593527 0.32068495 94.25492668 2.63381958 C95.55522045 4.41580304 96.61864773 6.17079422 97.62962341 8.12939453 C98.22388123 9.21994141 98.81813904 10.31048828 99.43040466 11.43408203 C105.49730544 25.76262805 106.67885361 43.25960783 101.12962341 58.00439453 C94.74851376 73.17064183 83.33388205 85.13449754 68.24290466 91.57470703 C53.17869521 97.47893246 35.85338548 99.22725538 20.62571716 92.66455078 C4.3845589 84.34280998 -7.2369668 72.58240141 -13.80787659 55.37939453 C-17.77987294 41.06293812 -17.53017101 23.3333875 -10.37037659 10.12939453 C-9.99340669 9.39302261 -9.61643679 8.6566507 -9.22804356 7.89796448 C-5.07829072 0.64660184 -5.07829072 0.64660184 0 0 Z " fill="#000000" transform="translate(137.37037658691406,313.87060546875)"/>
<path d="M0 0 C1.40578308 -0.02321823 1.40578308 -0.02321823 2.83996582 -0.04690552 C5.93395992 -0.08786756 9.02518973 -0.07725598 12.11938477 -0.0625 C14.27263751 -0.0722964 16.42588281 -0.08387789 18.57911682 -0.09716797 C23.0910003 -0.11650946 27.60191905 -0.10951288 32.11376953 -0.08496094 C37.89298636 -0.05628349 43.66903908 -0.09997638 49.44787502 -0.16436768 C53.89448083 -0.20469879 58.34032859 -0.20297162 62.78706551 -0.18896484 C64.9173274 -0.18799191 67.04764297 -0.20090908 69.17773247 -0.22802734 C72.15953873 -0.26038363 75.13558889 -0.23519123 78.1171875 -0.1953125 C78.99478226 -0.21667267 79.87237701 -0.23803284 80.77656555 -0.26004028 C84.62157767 -0.15423078 86.75915594 0.02993453 89.48161507 2.88922119 C91.04123186 5.18345105 92.37656891 7.46083915 93.62329102 9.9375 C93.93813666 10.56204071 94.25298231 11.18658142 94.57736874 11.83004761 C100.54651123 24.82284284 101.29881584 42.322841 96.82910156 55.89648438 C91.38220599 69.9230626 81.14269819 82.93420349 67.62329102 89.9375 C51.84449359 96.36396385 34.85336576 99.25140961 18.39672852 93.1171875 C17.02387695 92.53324219 17.02387695 92.53324219 15.62329102 91.9375 C14.76993164 91.61007812 13.91657227 91.28265625 13.03735352 90.9453125 C-1.84298921 84.51437574 -12.10203977 70.58140778 -18.16796875 56.04077148 C-20.57755817 49.66193896 -20.95424181 43.654287 -20.93920898 36.875 C-20.93667114 35.22878662 -20.93667114 35.22878662 -20.93408203 33.54931641 C-20.72564941 24.05064431 -18.94191262 16.31529236 -14.37670898 7.9375 C-14.06652297 7.33656525 -13.75633696 6.73563049 -13.43675137 6.1164856 C-9.92707762 0.21527216 -6.57114427 -0.08238052 0 0 Z " fill="#000000" transform="translate(291.376708984375,314.0625)"/>
</svg>
